<?xml version="1.0" encoding="utf-8"?>
<!-- Generator: Adobe Illustrator 27.5.0, SVG Export Plug-In . SVG Version: 6.00 Build 0)  -->
<svg version="1.1" id="Layer_1" xmlns="http://www.w3.org/2000/svg" xmlns:xlink="http://www.w3.org/1999/xlink" x="0px" y="0px"
	 viewBox="0 0 4000 4000" style="enable-background:new 0 0 4000 4000;" xml:space="preserve">
<g>
	<g>
		<rect style="fill:#9D91FF;" width="4000" height="4000"/>
	</g>
	<g>
		<g style="opacity:0.2;">
			<ellipse style="fill:#232323;" cx="1987.5" cy="3670" rx="1037.5" ry="115"/>
		</g>
		<g>
			<g>
				<g>
					<path style="fill:#F7F7F7;" d="M2528.564,2858.399l-592.665-196.111c-52.693-17.436-86.982-69.147-83.179-125.44
						l55.479-821.185c5.396-79.865,83.068-133.288,157.824-108.552l592.665,196.111c52.693,17.436,86.982,69.147,83.178,125.44
						l-55.479,821.186C2680.993,2829.713,2603.321,2883.136,2528.564,2858.399z"/>
					<path style="fill:#232323;" d="M2566.093,2886.994c-14.932,0-29.956-2.388-44.6-7.231l-592.666-196.113
						c-62.529-20.688-103.062-81.68-98.56-148.32l55.479-821.186c3.081-45.566,26.357-86.162,63.867-111.382
						c36.665-24.648,81.665-30.84,123.482-17.012l592.666,196.113c62.525,20.688,103.057,81.675,98.56,148.315l-55.483,821.191
						c-3.081,45.567-26.357,86.162-63.867,111.382C2621.147,2878.766,2593.798,2886.994,2566.093,2886.994z M2535.634,2837.038
						c28.511,9.443,59.209,5.19,84.229-11.631c25.874-17.397,41.938-45.488,44.077-77.075l55.483-821.186
						c3.11-46.147-24.766-88.325-67.798-102.559l-592.671-196.113c-28.496-9.434-59.209-5.185-84.234,11.636
						c-25.874,17.397-41.943,45.488-44.072,77.07l-55.483,821.186c-3.115,46.147,24.766,88.32,67.798,102.559L2535.634,2837.038z"/>
				</g>
				<g style="opacity:0.3;">
					<path style="fill:#232323;" d="M2456.32,2890.804l-592.665-196.111c-52.693-17.436-86.982-69.147-83.179-125.44l55.479-821.185
						c5.396-79.865,83.068-133.288,157.824-108.552l592.665,196.111c52.693,17.436,86.982,69.147,83.179,125.44l-55.479,821.186
						C2608.748,2862.117,2531.076,2915.54,2456.32,2890.804z"/>
				</g>
				<g>
					<path style="fill:#232323;" d="M2566.093,2886.994c-14.932,0-29.956-2.388-44.6-7.231l-592.666-196.113
						c-62.529-20.688-103.062-81.68-98.56-148.32l55.479-821.186c3.081-45.566,26.357-86.162,63.867-111.382
						c36.665-24.648,81.665-30.84,123.482-17.012l592.666,196.113c62.525,20.688,103.057,81.675,98.56,148.315l-55.483,821.191
						c-3.081,45.567-26.357,86.162-63.867,111.382C2621.147,2878.766,2593.798,2886.994,2566.093,2886.994z M2535.634,2837.038
						c28.511,9.443,59.209,5.19,84.229-11.631c25.874-17.397,41.938-45.488,44.077-77.075l55.483-821.186
						c3.11-46.147-24.766-88.325-67.798-102.559l-592.671-196.113c-28.496-9.434-59.209-5.185-84.234,11.636
						c-25.874,17.397-41.943,45.488-44.072,77.07l-55.483,821.186c-3.115,46.147,24.766,88.32,67.798,102.559L2535.634,2837.038z"/>
				</g>
				<g>
					<path style="fill:#F7F7F7;" d="M2483.514,2916.205c-32.19,0-62.57-6.527-89.201-18.164
						c34.517,238.58,30.768,537.983,27.859,649.292c-0.969,37.101-23.27,70.906-57.722,84.677
						c-18.745,7.496-42.467,12.991-71.878,12.991h-336.054c-28.958,0-54.296-19.521-61.277-47.573
						c-5.042-19.975-7.045-47.576-1.292-84.936c5.3-34.453,23.657-60.759,48.995-79.119c0,0,0.582-161.658-42.532-269.41
						c-10.083-25.079-21.783-50.549-33.806-74.851c-2.068,2.651-61.535,81.445-61.535,210.074c0,130.892,0,289.256,0,289.256
						s-21.007,32.319-87.261,32.319h-398.042c-28.247,0-52.486-20.427-56.753-48.349c-7.886-51.581-4.46-130.504,77.566-165.216
						c-72.847-636.298-23.399-1020.314,41.563-1242.991l-1.552-0.455c-305.415,17.776-472.376-391.642-412.585-611.411
						c22.947-84.418,61.406-134.254,100.06-163.6c69.68-52.938,172.907-18.356,193.139,66.772
						c11.764,49.577-4.46,92.498-27.471,125.786c0.453,2.004,22.106,88.36,68.581,162.76
						c4.718-4.589,243.621-231.795,1032.336,30.186c323.643,80.28,362.943,624.857,362.943,624.857
						C2764.431,2873.091,2588.939,2916.205,2483.514,2916.205z"/>
				</g>
				<g>
					<g style="opacity:0.3;">
						<path style="fill:#232323;" d="M2706.677,2475.652c-9.25,127.421-41.322,229.263-73.679,270.338
							c-1.557,1.977-3.131,3.879-4.722,5.707c-62.657,72.047-181.391,23.726-179.916-71.744
							c6.276-406.322-223.312-614.816-223.312-614.816s31.126,628.811-251.069,764.179
							c-282.196,135.368-479.525-15.509-479.525-15.509s19.312,92.85,114.019,158.103c60.624,41.77,95.108,112.175,87.543,185.406
							c-8.009,77.534-14.662,178.266-10.184,276.433c2.508,54.988-41.655,100.827-96.699,100.827h-328.926
							c-0.115,13.442,1.071,26.322,2.832,37.836c4.266,27.922,28.505,48.349,56.752,48.349h398.042
							c66.254,0,87.262-32.319,87.262-32.319s0-158.364,0-289.256c0-128.629,59.467-207.423,61.535-210.074
							c12.023,24.302,23.723,49.773,33.806,74.851c43.114,107.751,42.532,269.41,42.532,269.41
							c-25.338,18.359-43.695,44.666-48.995,79.119c-5.753,37.36-3.749,64.96,1.293,84.936
							c6.981,28.052,32.319,47.573,61.277,47.573h336.054c29.41,0,53.133-5.495,71.877-12.991
							c34.452-13.77,56.753-47.576,57.722-84.677c2.909-111.308,6.658-410.711-27.859-649.292
							c26.631,11.637,57.011,18.164,89.201,18.164C2582.978,2916.205,2744.719,2877.778,2706.677,2475.652z M2099.375,3539.963
							h-94.784c-38.155,0-64.068-39.434-48.27-74.164c17.211-37.835,45.695-58.634,45.695-58.634
							c4.637-147.662-24.016-257.385-49.407-324.281c-14.015-36.923,8.613-77.215,47.171-85.753
							c1.058-0.234,2.113-0.472,3.163-0.712c92.822-21.257,186.698,34.469,208.806,127.092
							c25.7,107.672,24.895,216.735,18.291,296.229C2224.394,3487.71,2167.581,3539.963,2099.375,3539.963z"/>
					</g>
				</g>
				<g style="opacity:0.3;">
					<path style="fill:#232323;" d="M1435.558,2021.417l-53.391,142.788l-1.552-0.455
						c-206.066,12.025-349.11-170.452-401.92-357.965C1029.243,1894.47,1172.869,2088.126,1435.558,2021.417z"/>
				</g>
				<g>
					<path style="fill:#232323;" d="M2336.127,1798.483c-2.534,0-5.107-0.4-7.642-1.24
						c-402.363-133.677-655.503-135.996-797.002-114.419c-151.875,23.169-210.278,78.032-210.85,78.584
						c-9.565,9.229-24.868,9.082-34.18-0.43c-9.307-9.502-9.272-24.663,0.156-34.043c10.054-10.01,255.542-241.963,1057.148,24.341
						c12.69,4.219,19.565,17.925,15.347,30.62C2355.732,1792.052,2346.274,1798.483,2336.127,1798.483z"/>
				</g>
				<g>
					<path style="fill:#232323;" d="M1929.106,3281.95c-7.7,0-14.756-5.122-16.875-12.91c-2.539-9.326,2.964-18.945,12.29-21.479
						c8.525-2.32,212.173-56.177,502.339-0.298c9.487,1.826,15.703,11.001,13.872,20.493c-1.826,9.487-11.006,15.703-20.493,13.872
						c-282.266-54.36-484.522-0.845-486.528-0.298C1932.172,3281.75,1930.624,3281.95,1929.106,3281.95z"/>
				</g>
				<g>
					<path style="fill:#232323;" d="M1939.382,3412.454c14.307-11.823,31.443-19.268,48.733-24.031
						c17.395-4.716,35.325-5.997,52.842-5.348c17.539,0.657,34.814,3.673,51.262,8.799c16.396,5.265,32.087,12.574,45.64,22.661
						c1.299,0.967,1.567,2.803,0.601,4.102c-0.686,0.922-1.809,1.326-2.869,1.135l-0.029-0.005
						c-32.017-5.79-63.042-5.706-92.576-0.688c-14.741,2.494-28.906,6.539-42.5,11.013c-13.672,4.431-26.44,10.089-39.265,15.875
						l-0.747,0.337c-10.129,4.569-22.043,0.062-26.614-10.067C1930.049,3427.788,1932.571,3418.088,1939.382,3412.454z"/>
				</g>
				<g>
					<path style="fill:#232323;" d="M2293.999,3669.22h-336.06c-40.21,0-75.068-27.109-84.766-65.928
						c-6.675-26.694-7.256-58.481-1.714-94.482c5.752-37.403,25.005-69.521,55.679-92.891c10.649-8.105,25.84-6.045,33.945,4.59
						c8.101,10.644,6.05,25.84-4.59,33.945c-20.796,15.84-33.301,36.602-37.163,61.719c-4.551,29.6-4.272,54.956,0.835,75.371
						c4.302,17.217,19.834,29.238,37.773,29.238h336.06c23.057,0,44.209-3.789,62.881-11.255
						c25.098-10.044,41.792-34.702,42.529-62.827c3.11-119.243,6.455-422.178-29.668-659.17
						c-2.016-13.223,7.071-25.576,20.293-27.588c13.242-2.012,25.576,7.075,27.588,20.293
						c36.709,240.835,33.354,547.192,30.205,667.729c-1.24,47.48-29.878,89.297-72.954,106.533
						C2350.454,3664.269,2323.242,3669.22,2293.999,3669.22z"/>
				</g>
				<g>
					<path style="fill:#232323;" d="M2230.266,2062.527c15.356,20.753,26.982,43.094,37.527,65.973
						c2.651,5.708,5.154,11.478,7.654,17.255c2.295,5.837,4.661,11.656,6.838,17.543c4.612,11.696,8.499,23.612,12.319,35.557
						c3.904,11.925,7.063,24.05,10.251,36.165c1.555,6.067,3.223,12.106,4.688,18.192l4.307,18.273
						c6.062,24.285,11.335,48.723,16.782,73.129c4.702,24.547,9.951,49.003,13.735,73.704c1.987,12.332,4.233,24.629,6.008,36.991
						l5.061,37.124l2.512,18.564l1.97,18.625l3.933,37.25c2.307,24.86,3.838,49.783,5.789,74.672
						c0.754,9.634-6.443,18.055-16.077,18.811c-9.634,0.754-18.054-6.443-18.811-16.077l-0.051-0.679
						c-1.929-24.484-3.43-49.008-5.696-73.457l-3.87-36.627l-1.934-18.314l-2.473-18.245l-4.971-36.484
						c-1.743-12.147-3.953-24.219-5.906-36.333c-3.708-24.269-8.87-48.254-13.477-72.35c-5.398-23.914-10.303-47.963-16.934-71.559
						c-3.105-11.854-6.418-23.646-10.051-35.336c-3.562-11.71-6.812-23.511-10.469-35.171
						c-13.674-46.946-27.085-93.94-39.092-141.978l-0.066-0.262c-0.791-3.171,1.135-6.384,4.307-7.177
						C2226.465,2059.707,2228.884,2060.662,2230.266,2062.527z"/>
				</g>
				<g>
					<path style="fill:#232323;" d="M2484.951,2938.703c-117.7,0-213.452-80.649-213.452-179.785
						c0-46.265,25.879-98.603,65.933-133.345c9.39-8.135,23.599-7.129,31.738,2.256c8.145,9.385,7.134,23.594-2.256,31.738
						c-29.683,25.747-50.415,66.602-50.415,99.351c0,74.322,75.566,134.785,168.452,134.785c39.814,0,97.798-5.805,141.416-56.006
						c63.818-73.443,80.781-219.951,50.415-435.459c-0.068-0.498-0.122-1.011-0.161-1.514
						c-0.386-5.283-41.978-529.243-345.913-604.624c-12.061-2.993-19.414-15.195-16.426-27.256
						c2.998-12.065,15.234-19.429,27.256-16.421c140.093,34.741,250.293,158.203,318.687,357.036
						c49.224,143.096,60.259,274.697,61.22,287.231c32.124,228.604,11.563,386.895-61.108,470.522
						C2618.535,2915.319,2561.167,2938.703,2484.951,2938.703z"/>
				</g>
				<g>
					<path style="fill:#F8CE14;" d="M1627.436,1591.722c0,0,7.796,136.87,151.243,220.799
						c298.267,174.51,557.444-38.259,557.444-38.259L1627.436,1591.722"/>
				</g>
				<g>
					<path style="fill:#232323;" d="M2023.93,1903.551c-76.851,0-164.917-17.959-256.611-71.611
						c-152.114-88.999-162.002-232.861-162.349-238.94c-0.405-7.168,2.632-14.106,8.184-18.662
						c5.547-4.561,12.964-6.191,19.893-4.404l708.687,182.539c8.208,2.109,14.531,8.657,16.357,16.929
						c1.831,8.271-1.142,16.87-7.69,22.251c-2.788,2.285-69.429,56.377-174.536,88.687
						C2133.876,1893.249,2082.114,1903.551,2023.93,1903.551z M1655.703,1622.233c11.113,42.261,43.12,117.495,134.341,170.869
						c117.519,68.755,242.344,83.794,370.986,44.717c51.357-15.605,93.203-37.207,121.323-54.175L1655.703,1622.233z"/>
				</g>
				<g>
					<g>
						<path style="fill:#FFFFFF;" d="M1429.736,1213.981c18.265,118.228,66.528,232.581,144.324,331.26
							c15.874,20.115,32.896,39.554,51.162,58.227c8.859,9.112,18.106,18.042,27.585,26.866
							c28.707,26.438,58.986,50.125,90.566,71.095c27.175,18.14,55.35,34.217,84.178,48.301
							c34.807,17.026,70.69,31.064,107.224,42.218c13.338,4.023,26.741,7.686,40.208,10.992
							c246.626,59.973,517.368-9.471,702.363-205.012c272.576-287.994,255.742-740.427-37.47-1010.535
							c-56.51-51.983-119.157-93.551-185.448-124.457c-7.713-3.685-15.565-7.163-23.478-10.473
							c-21.104-8.997-42.515-16.957-64.178-23.864c-50.106-15.958-101.568-26.357-153.328-31.267
							c-51.739-4.965-103.91-4.426-155.398,1.568c-16.372,1.896-32.678,4.325-48.938,7.342
							c-24.36,4.535-48.493,10.232-72.402,17.281c-119.112,34.755-230.587,100.314-321.369,196.277
							C1458.533,785.458,1397.533,1005.504,1429.736,1213.981z"/>
						<path style="fill:#232323;" d="M2148.886,1825.671c-58.037,0-116.543-6.851-174.346-20.903
							c-13.467-3.306-27.026-7.012-40.308-11.021c-37.036-11.309-73.203-25.552-107.505-42.329
							c-29.326-14.326-57.72-30.62-84.399-48.428c-31.875-21.162-62.422-45.142-90.796-71.274
							c-10.42-9.702-19.463-18.511-27.656-26.939c-17.915-18.315-35.176-37.954-51.289-58.374
							c-75.991-96.382-126.03-211.23-144.707-332.134c-33.686-218.086,34.141-435.229,186.094-595.762
							c87.852-92.866,199.268-160.918,322.207-196.787c23.237-6.855,47.661-12.686,72.588-17.324
							c16.006-2.974,32.515-5.449,49.063-7.363c51.636-6.006,104.048-6.538,155.791-1.572
							c52.271,4.961,103.989,15.508,153.721,31.348c21.66,6.904,43.311,14.956,64.346,23.926c8.462,3.54,16.167,6.982,23.55,10.508
							c67.642,31.533,130.2,73.516,185.913,124.771c142.754,131.504,225,309.751,231.582,501.899
							c6.528,190.63-62.378,372.212-194.028,511.309C2540.385,1745.431,2347.5,1825.671,2148.886,1825.671z M1431.591,1213.693
							c18.584,120.264,68.359,234.512,143.945,330.386c16.035,20.313,33.203,39.854,51.03,58.076
							c8.154,8.389,17.153,17.153,27.52,26.802c28.218,25.991,58.613,49.849,90.327,70.903c26.538,17.72,54.79,33.926,83.965,48.179
							c34.121,16.694,70.103,30.864,106.943,42.114c13.213,3.984,26.709,7.676,40.112,10.962
							c254.277,61.836,522.725-16.514,700.542-204.477c130.957-138.359,199.497-318.979,193.003-508.594
							c-6.548-191.138-88.364-368.447-230.376-499.267c-55.425-50.991-117.656-92.759-184.971-124.136
							c-7.339-3.511-14.99-6.924-23.408-10.444c-20.938-8.931-42.476-16.939-64.023-23.804
							c-49.473-15.762-100.928-26.255-152.935-31.191c-51.484-4.936-103.628-4.414-155.005,1.563
							c-16.465,1.904-32.886,4.37-48.808,7.324c-24.795,4.619-49.092,10.42-72.212,17.236
							c-122.305,35.689-233.145,103.384-320.537,195.767C1465.556,780.773,1398.085,996.769,1431.591,1213.693z"/>
					</g>
					<g style="opacity:0.3;">
						<path style="fill:#232323;" d="M2677.348,1597.909c-184.981,195.574-455.761,265.019-702.375,205.009
							c-13.473-3.288-26.867-6.946-40.182-10.976c-36.549-11.14-72.416-25.202-107.229-42.2
							c-28.822-14.109-57.018-30.172-84.174-48.296c-31.604-20.968-61.866-44.652-90.6-71.1
							c-9.44-8.852-18.695-17.755-27.583-26.855c-18.263-18.69-35.249-38.158-51.14-58.261
							c-77.795-98.68-126.087-213.01-144.334-331.271c-10.046-64.946-11.036-131.063-2.892-196.282
							c20.032,112.448,67.396,220.824,141.61,314.971c15.846,20.15,32.877,39.571,51.14,58.261
							c8.842,9.101,18.097,18.005,27.583,26.855c28.734,26.449,58.996,50.131,90.553,71.103
							c27.203,18.121,55.352,34.185,84.174,48.294c34.813,16.997,70.726,31.059,107.228,42.201
							c13.362,4.026,26.756,7.686,40.229,10.973c246.613,60.01,517.347-9.434,702.374-205.009
							c107.969-114.06,170.473-253.929,188.434-398.003C2898.292,1200.637,2838.247,1427.935,2677.348,1597.909z"/>
					</g>
					<g>
						<path style="fill:#232323;" d="M2148.867,1846.286c-59.653,0-119.79-7.036-179.199-21.479
							c-13.857-3.403-27.769-7.207-41.392-11.313c-38.144-11.65-75.332-26.294-110.61-43.555
							c-30.142-14.722-59.346-31.479-86.782-49.795c-32.739-21.733-64.15-46.392-93.32-73.262
							c-10.752-10.01-20.039-19.053-28.472-27.729c-18.379-18.789-36.123-38.984-52.69-59.971
							c-78.193-99.18-129.678-217.353-148.901-341.763v-0.005c-34.668-224.429,35.132-447.886,191.494-613.081
							c90.361-95.522,204.966-165.513,331.411-202.412c23.857-7.031,48.97-13.027,74.585-17.798
							c16.484-3.062,33.457-5.605,50.469-7.573c53.076-6.177,106.958-6.724,160.132-1.616
							c53.711,5.098,106.88,15.942,158.013,32.227c22.281,7.105,44.541,15.381,66.177,24.605c8.647,3.623,16.66,7.197,24.351,10.869
							c69.39,32.349,133.706,75.513,190.981,128.203c146.855,135.283,231.455,318.662,238.228,516.372
							c6.724,196.182-64.185,383.052-199.653,526.187C2551.425,1763.766,2353.081,1846.286,2148.867,1846.286z M1451.972,1210.543
							c18.037,116.758,66.367,227.681,139.761,320.767c15.571,19.731,32.256,38.721,49.575,56.426
							c7.959,8.184,16.719,16.714,26.831,26.128c27.339,25.181,56.87,48.364,87.681,68.818
							c25.816,17.236,53.257,32.978,81.611,46.831c33.154,16.221,68.115,29.985,103.916,40.918
							c12.798,3.862,25.947,7.456,38.999,10.659c247.075,60.073,507.901-16.026,680.654-198.628
							c127.129-134.321,193.672-309.658,187.368-493.716c-6.358-185.576-85.816-357.754-223.735-484.805
							c-53.857-49.546-114.321-90.132-179.712-120.615c-7.207-3.442-14.556-6.719-22.656-10.108
							c-20.474-8.73-41.396-16.509-62.324-23.184c-48.076-15.313-98.081-25.508-148.623-30.308
							c-50.063-4.805-100.747-4.297-150.669,1.519c-16.016,1.855-31.968,4.248-47.432,7.119
							c-24.097,4.482-47.7,10.117-70.142,16.738c-118.857,34.678-226.514,100.43-311.392,190.161
							c-146.738,155.02-212.241,364.702-179.712,575.283V1210.543z"/>
					</g>
					<g>
						<path style="fill:#232323;" d="M1481.047,1390.285c299.264,418.452,914.512,417.599,1116.498-46.72
							c137.419-315.896-70.725-693.89-387.427-806.007c-230.5-81.6-491.271-61.983-715.859,255.626
							c0,0-77.334,155.841-72.105,279.959s31.552,244.054,31.552,244.054L1481.047,1390.285z"/>
					</g>
					<g>
						<path style="fill:#020202;" d="M2597.525,1343.562c-201.969,464.312-817.229,465.154-1116.489,46.74l-5.528-14.823
							c411.539,235.161,944.4,133.256,1157.492-332.416C2649.455,1142.688,2639.917,1246.071,2597.525,1343.562z"/>
					</g>
					<g>
						<path style="fill:#232323;" d="M2061.679,1788.83c-109.37,0-220.952-24.165-325.347-72.046l-2.305-1.284
							c-32.534-21.602-63.716-46.074-92.666-72.739c-10.664-9.927-19.883-18.906-28.252-27.515
							c-18.252-18.662-35.864-38.706-52.31-59.536c-77.593-98.418-128.687-215.693-147.759-339.15l0,0
							c-34.399-222.705,34.863-444.448,190.024-608.369c89.678-94.805,203.418-164.268,328.911-200.884l1.665-0.488l1.729-0.137
							c95.132-7.568,196.904,7.563,302.476,44.937c189.956,67.251,353.14,221.89,436.509,413.657
							c75.049,172.637,78.179,355.527,8.804,514.985c-75.552,173.618-204.312,299.346-372.358,363.594
							C2232.187,1773.908,2147.617,1788.83,2061.679,1788.83z M1751.62,1686.623c177.91,81.23,377.251,90.61,547.114,25.669
							c159.38-60.928,281.597-180.405,353.442-345.513c65.591-150.767,62.466-324.087-8.809-488.032
							c-79.702-183.33-235.518-331.099-416.802-395.273c-100.425-35.552-196.929-50.107-286.792-43.247
							c-119.087,35.068-226.997,101.152-312.168,191.187c-147.935,156.284-213.97,367.685-181.177,579.99l0,0
							c18.189,117.71,66.909,229.531,140.898,323.379c15.698,19.893,32.515,39.028,49.971,56.87
							c8.013,8.242,16.836,16.836,27.021,26.318C1691.572,1643.073,1720.957,1666.183,1751.62,1686.623z"/>
					</g>
					<g>
						<path style="fill:#232323;" d="M2057.231,1716.935c-227.378,0-449.121-116.9-591.367-315.791l-1.436-2.007l-28.955-77.935
							c-1.089-4.966-26.733-122.959-31.973-247.276c-5.361-127.441,70.796-282.5,74.038-289.038l1.484-2.48
							c196.44-277.813,444.507-366.108,737.324-262.446c169.937,60.156,315.908,198.467,390.474,369.98
							c67.183,154.517,69.966,318.262,7.842,461.069c-90.034,206.973-267.979,339.019-488.198,362.285
							C2103.393,1715.734,2080.263,1716.935,2057.231,1716.935z M1497.661,1381.418c148.955,206.87,388.242,319.805,624.878,294.751
							c206.475-21.811,373.369-145.757,457.886-340.049c57.949-133.208,55.166-286.377-7.842-431.289
							c-70.513-162.192-208.345-292.91-368.697-349.673c-274.687-97.241-508.022-13.95-693.506,247.568
							c-7.139,14.81-74.297,157.529-69.575,269.629c4.814,114.263,28.081,226.509,30.864,239.585L1497.661,1381.418z"/>
					</g>
					<g>
						<path style="fill:#FFFFFF;" d="M2910.85,1422.618c-40.059,135.197-154.68,224.855-256.041,200.224
							c-101.361-24.63-151.047-154.205-110.988-289.402c0.235-0.851,0.525-1.743,0.808-2.587
							c40.718-133.758,154.587-222.104,255.233-197.637c78.303,19.022,125.763,100.682,124.854,199.163
							C2924.432,1361.374,2919.957,1391.872,2910.85,1422.618z"/>
						<path style="fill:#232323;" d="M2688.872,1630.451c-11.729,0-23.394-1.348-34.902-4.146
							c-40.567-9.858-74.141-36.152-97.095-76.045c-33.486-58.188-39.644-139.624-16.465-217.832c0.229-0.85,0.537-1.807,0.845-2.71
							c41.089-134.995,157.529-224.712,259.448-199.961c77.251,18.765,128.521,100.205,127.573,202.656
							c-0.293,30.122-5.005,60.815-14.014,91.216l0,0C2878.266,1545.124,2782.094,1630.451,2688.872,1630.451z M2765.878,1132.746
							c-89.307,0-182.236,82.188-217.842,199.146c-0.293,0.879-0.562,1.709-0.781,2.495
							c-22.651,76.44-16.738,155.791,15.791,212.324c21.958,38.159,53.979,63.286,92.602,72.671
							c99.365,24.155,212.315-64.575,251.787-197.773l0,0c8.813-29.771,13.433-59.8,13.721-89.263
							c0.913-99.067-48.169-177.7-122.134-195.664C2788.115,1134.03,2777.016,1132.746,2765.878,1132.746z"/>
					</g>
					<g style="opacity:0.3;">
						<path style="fill:#232323;" d="M2910.85,1422.618c-40.059,135.197-154.68,224.855-256.041,200.224
							c-101.361-24.63-151.047-154.205-110.988-289.402c0.235-0.851,0.525-1.743,0.808-2.587
							c7.032,16.581,20.327,34.459,45.19,35.564c43.55,1.917,143.167-67.073,143.167-67.073s83.239,13.785,191.731,33.035
							C2924.432,1361.374,2919.957,1391.872,2910.85,1422.618z"/>
					</g>
					<g>
						<path style="fill:#232323;" d="M2688.583,1645.797c-12.842,0-25.63-1.479-38.247-4.546
							c-44.76-10.874-81.689-39.688-106.797-83.32c-36.084-62.695-42.603-146.489-17.891-229.892
							c42.813-144.521,167.852-240.195,278.711-213.237c44.761,10.874,81.689,39.688,106.802,83.32
							c36.079,62.695,42.598,146.484,17.886,229.888C2891.103,1556.085,2788.579,1645.797,2688.583,1645.797z M2765.307,1148.078
							c-83.32,0-170.156,78.867-203.301,190.732c-21.455,72.417-16.074,147.261,14.399,200.21
							c19.8,34.409,48.462,57.021,82.886,65.386c91.548,22.261,196.23-61.719,233.398-187.168l0,0
							c21.455-72.412,16.074-147.256-14.395-200.2c-19.805-34.414-48.467-57.026-82.891-65.391
							C2785.498,1149.24,2775.424,1148.078,2765.307,1148.078z"/>
					</g>
					<g>
						
							<ellipse transform="matrix(0.3747 -0.9272 0.9272 0.3747 425.7703 3462.2671)" style="fill:#FFFFFF;" cx="2779.58" cy="1415.496" rx="202.98" ry="153.439"/>
						<path style="fill:#232323;" d="M2747.983,1614.264c-31.675,0-60.342-11.509-83.56-33.701
							c-63.706-60.889-64.053-184.448-0.771-275.444c35.273-50.723,84.092-82.69,133.945-87.7
							c37.051-3.735,70.649,7.695,97.139,33.008c63.706,60.884,64.048,184.453,0.771,275.449l0,0
							c-35.273,50.723-84.096,82.69-133.945,87.7C2756.982,1614.035,2752.451,1614.264,2747.983,1614.264z M2811.142,1220.631
							c-4.331,0-8.716,0.225-13.154,0.669c-48.716,4.897-96.509,36.26-131.133,86.045c-62.227,89.482-62.109,210.781,0.264,270.396
							c25.645,24.507,58.159,35.581,94.053,31.948c48.711-4.893,96.509-36.255,131.133-86.04
							c62.227-89.487,62.109-210.786-0.264-270.4C2869.57,1231.774,2841.811,1220.631,2811.142,1220.631z"/>
					</g>
					<g style="opacity:0.3;">
						<path style="fill:#232323;" d="M2615.977,1457.213c1.468-38.411,13.625-76.512,33.08-109.943
							c4.133,87.894,68.163,141.974,149.349,122.5c52.466-12.562,100.013-52.997,130.09-104.744
							c0.297,5.542,0.284,11.275,0.074,17.1c-3.784,97.807-76.825,193.91-163.156,214.636
							C2679.082,1617.486,2612.206,1554.969,2615.977,1457.213z"/>
					</g>
					<g>
						<path style="fill:#232323;" d="M2744.731,1629.513c-8.975,0-17.891-0.991-26.675-3.057
							c-32.803-7.7-60.02-28.857-78.701-61.186c-28.955-50.093-33.647-121.899-12.549-192.08
							c35.566-118.315,133.706-198.345,218.833-178.34c32.803,7.7,60.02,28.853,78.701,61.177
							c28.955,50.093,33.648,121.904,12.549,192.09l0,0C2904.99,1554.22,2822.744,1629.513,2744.731,1629.513z M2817.993,1225.46
							c-63.091,0-131.24,65.684-158.833,157.456c-18.462,61.421-14.932,123.271,9.448,165.449
							c13.901,24.048,33.672,39.682,57.173,45.2c68.008,15.913,148.223-53.633,178.755-155.176
							c18.462-61.426,14.932-123.281-9.448-165.454c-13.901-24.048-33.672-39.678-57.173-45.195
							C2831.372,1226.208,2824.707,1225.46,2817.993,1225.46z M2920.712,1443.254h0.049H2920.712z"/>
					</g>
					<g style="opacity:0.5;">
						<path style="fill:#FFFFFF;" d="M2326.872,738.852c0,0-306.058-87.154-531.746,24.213c-0.237,0.117-0.474,0.234-0.711,0.352
							c-47.479,23.479-87.6,59.247-116.422,103.229c-38.116,58.164-55.718,103.793-69.639,144.558
							c-42.282,123.996-38.538,190.006-38.538,190.006c-49.283-89.557-64.28-177.479-30.102-281.109
							c3.397-10.207,7.282-20.606,11.612-31.155c0.989-2.434,2.025-4.824,3.105-7.218c-0.047-0.042-0.003-0.088,0.085-0.135
							c10.297-20.751,24.874-47.511,43.881-76.33c57.271-86.953,154.579-192.782,295.598-209.718
							C2157.677,563.875,2341.66,729.384,2326.872,738.852z"/>
						<path style="fill:#232323;" d="M1574.238,1216.627l-7.544-13.701c-53.623-97.446-62.988-185.02-30.366-283.94
							c3.374-10.137,7.309-20.693,11.704-31.396c0.918-2.261,1.88-4.497,2.886-6.738l0.161-1.479l0.762-0.4
							c12.974-26.035,27.637-51.494,43.584-75.674c57.256-86.929,155.459-194.15,298.145-211.289
							c132.226-15.894,240.298,18.013,307.661,49.243c76.787,35.596,124.37,78.677,129.434,92.793
							c1.738,4.854-0.732,7.08-1.875,7.808l-1.353,0.869l-1.543-0.44c-3.047-0.869-307.368-85.498-529.19,23.975l-2.29-2.842
							l1.577,3.193c-46.636,23.066-86.411,58.335-115.02,101.992c-38.838,59.268-56.108,105.278-69.248,143.755
							c-41.504,121.719-38.389,187.998-38.354,188.652L1574.238,1216.627z M1557.48,883.639c-0.996,2.202-1.943,4.404-2.852,6.641
							c-4.336,10.566-8.218,20.977-11.538,30.942c-30.566,92.695-23.467,175.259,23.267,265.928
							c1.084-25.625,7.334-85.327,38.628-177.095c13.276-38.892,30.732-85.396,70.029-145.361
							c29.302-44.717,70.044-80.84,117.822-104.473l0.713-0.352c208.442-102.856,488.184-36.416,529.219-25.796
							c-2.378-3.862-8.296-11.128-21.226-22.241c-61.304-52.671-216.001-135.674-407.124-112.754
							c-139.976,16.816-236.621,122.471-293.047,208.14c-16.001,24.263-30.693,49.819-43.667,75.957L1557.48,883.639z"/>
					</g>
					<g style="opacity:0.5;">
						
							<ellipse transform="matrix(0.0553 -0.9985 0.9985 0.0553 1209.3429 3489.6667)" style="fill:#FFFFFF;" cx="2448.878" cy="1105.724" rx="111.333" ry="96.299"/>
						<path style="fill:#232323;" d="M2447.338,1220.568c-1.914,0-3.833-0.063-5.752-0.191
							c-54.931-3.642-96.357-58.032-92.344-121.245c2.109-33.218,16.616-63.945,39.8-84.302
							c19.253-16.909,43.115-25.308,67.129-23.76c54.931,3.643,96.357,58.032,92.344,121.245
							c-2.114,33.223-16.621,63.95-39.805,84.307C2490.99,1212.179,2469.394,1220.568,2447.338,1220.568z M2450.429,997.985
							c-20.337,0-40.288,7.768-56.704,22.178c-21.772,19.126-35.406,48.071-37.393,79.419
							c-3.77,59.316,34.688,110.327,85.723,113.706c22.178,1.47,44.141-6.343,61.968-22.002
							c21.777-19.121,35.41-48.066,37.402-79.419c3.769-59.316-34.688-110.327-85.723-113.706
							C2453.945,998.044,2452.182,997.985,2450.429,997.985z"/>
					</g>
					<g style="opacity:0.5;">
						
							<ellipse transform="matrix(0.9993 -0.0381 0.0381 0.9993 -48.0871 93.8593)" style="fill:#FFFFFF;" cx="2436.676" cy="1307.635" rx="40.007" ry="45.99"/>
						<path style="fill:#232323;" d="M2437.089,1357.179c-23.716,0-43.379-21.724-43.975-48.779l0,0
							c-0.317-14.248,4.775-27.91,13.975-37.48c7.773-8.086,17.896-12.642,28.501-12.822c24.053-0.225,44.043,21.47,44.649,48.774
							c0.317,14.248-4.775,27.91-13.979,37.485c-7.773,8.081-17.891,12.632-28.501,12.813
							C2437.539,1357.174,2437.314,1357.179,2437.089,1357.179z M2436.254,1265.212c-0.181,0-0.356,0.005-0.542,0.005
							c-8.696,0.151-17.036,3.931-23.486,10.64c-7.896,8.213-12.266,20.02-11.992,32.388l0,0
							c0.513,23.184,16.997,41.807,36.855,41.812c0.186,0,0.366-0.005,0.547-0.005c8.701-0.151,17.041-3.926,23.491-10.635
							c7.896-8.213,12.266-20.02,11.992-32.388C2472.602,1283.844,2456.118,1265.212,2436.254,1265.212z"/>
					</g>
				</g>
				<g>
					<path style="fill:#232323;" d="M1342.006,3429.665c-11.279,0-21.011-8.467-22.324-19.941
						c-51.807-452.617-48.291-829.907,10.454-1121.387c2.456-12.183,14.326-20.049,26.499-17.612
						c12.182,2.456,20.068,14.321,17.612,26.499c-57.813,286.865-61.128,659.443-9.858,1107.383
						c1.411,12.344-7.451,23.501-19.795,24.912C1343.725,3429.616,1342.861,3429.665,1342.006,3429.665z"/>
				</g>
				<g>
					<path style="fill:#232323;" d="M1522.334,1892.303c-11.045,13.406-21.064,28.979-29.827,44.669
						c-4.5,7.83-8.789,15.803-12.937,23.823c-3.892,8.199-8.152,16.132-11.719,24.48c-15.127,32.864-28.062,66.741-39.294,101.194
						c-6.052,17.052-10.75,34.617-16.06,51.925c-2.756,8.617-4.8,17.493-7.161,26.246l-7.095,26.256l-12.473,53.025
						c-3.838,17.772-7.427,35.591-11.521,53.304l-0.168,0.728c-2.798,12.103-14.878,19.647-26.982,16.849
						c-11.921-2.755-19.414-14.547-16.963-26.467c3.777-18.278,8.059-36.451,12.095-54.67c4.722-18.085,9.79-36.084,14.751-54.092
						c10.908-35.803,22.91-71.299,37.573-105.858c6.868-17.43,15.227-34.312,23.149-51.289l13.13-24.946
						c4.377-8.295,9.314-16.353,14.089-24.43c19.856-31.982,41.118-63.104,70.5-88.439c2.153-1.857,5.405-1.616,7.261,0.538
						c1.663,1.927,1.646,4.735,0.078,6.635L1522.334,1892.303z"/>
				</g>
				<g>
					<path style="fill:#232323;" d="M1077.426,1961.291c-15.005,0-30.347-1.426-46.016-4.551
						c-9.253-1.846-15.259-10.845-13.413-20.102c1.846-9.253,10.855-15.254,20.102-13.413
						c153.394,30.581,282.085-133.618,283.364-135.283c5.762-7.471,16.479-8.872,23.97-3.101c7.476,5.762,8.862,16.494,3.101,23.97
						C1343.29,1815.612,1229.062,1961.291,1077.426,1961.291z"/>
				</g>
				<g>
					<path style="fill:#232323;" d="M1258.645,1575.428c4.224,11.035,8.613,23.372,12.81,35.133l6.414,17.827l6.555,17.766
						c8.879,23.605,17.659,47.291,28.274,70.073c5.359,11.362,10.84,22.665,17.031,33.545c3.037,5.496,6.333,10.769,9.504,16.207
						c3.394,5.217,6.716,10.574,10.427,15.576c14.299,20.603,31.46,39.067,52.693,54.199l0.081,0.059
						c1.577,1.123,1.943,3.312,0.82,4.888c-0.876,1.229-2.407,1.72-3.782,1.345c-26.367-7.242-50.691-22.645-71.243-41.177
						c-10.281-9.342-20.071-19.279-28.789-29.995c-8.806-10.652-17.292-21.61-24.751-33.152
						c-15.261-22.899-28.574-46.965-39.165-72.095c-2.71-6.257-5.127-12.626-7.5-19.008c-2.41-6.367-4.597-12.815-6.592-19.33
						c-4.102-13.136-7.488-25.886-9.817-40.269c-2.144-13.241,6.853-25.713,20.093-27.858c11.565-1.873,22.542,4.752,26.565,15.281
						L1258.645,1575.428z"/>
				</g>
				<g>
					<path style="fill:#4ED31C;" d="M1043.786,1204.909l221.386-71.102h273.096c0,0-53.587,166.443-52.649,261.785
						c0.938,95.341,9.018,109.885,9.018,109.885s53.327,50.095,43.631,192.299c0,0-40.399,32.319-100.189,12.928v25.855h-282.792
						C1155.287,1736.558,1179.527,1395.592,1043.786,1204.909z"/>
				</g>
				<g style="opacity:0.3;">
					<path style="fill:#232323;" d="M1538.269,1697.775c0,0-40.399,32.319-100.189,12.928v25.855h-282.792
						c0,0,24.239-340.966-111.501-531.649l17-5.495c30.962,80.41,92.109,196.758,196.629,239.613
						c66.707,27.345,152.805,36.716,231.986,38.139c2.456,23.333,5.236,28.311,5.236,28.311S1547.964,1555.571,1538.269,1697.775z"
						/>
				</g>
				<g style="opacity:0.6;">
					<g>
						<path style="fill:#FFFFFF;" d="M1288.604,1181.981h232.629c9.43-34.541,17.036-58.174,17.036-58.174h-273.096l-221.386,71.102
							c12.28,17.251,23.233,35.743,33.031,55.091L1288.604,1181.981z"/>
					</g>
				</g>
				<g>
					<path style="fill:#232323;" d="M1243.212,1671.935h-72.803c-1.748,0-3.408-0.757-4.561-2.07
						c-1.147-1.318-1.675-3.066-1.44-4.795c17.632-130.107-19.165-283.662-42.666-363.613c-0.644-2.202,0.005-4.575,1.685-6.138
						c6.245-5.82,9.975-15.679,9.975-26.372c0-9.18-2.793-17.866-7.661-23.833c-1.221-1.499-1.655-3.496-1.162-5.366
						c0.493-1.875,1.851-3.398,3.652-4.102l74.561-29.107c1.997-0.791,4.268-0.444,5.962,0.894c1.685,1.338,2.539,3.467,2.236,5.601
						c-0.298,2.09-0.444,4.028-0.444,5.923c0,21.289,15.977,38.608,35.61,38.608c2.91,0,5.747-0.371,8.428-1.103
						c3.062-0.85,6.304,0.859,7.329,3.896c54.292,160.127,33.481,317.373,22.017,377.549c-0.449,2.358-2.251,4.228-4.59,4.766
						c-2.334,0.557-4.771-0.352-6.211-2.275c-3.071-4.116-7.627-6.475-12.5-6.475c-8.857,0-16.064,7.837-16.064,17.471
						c0,4.038,1.211,7.793,3.501,10.869c1.367,1.836,1.587,4.287,0.557,6.333
						C1247.597,1670.641,1245.502,1671.935,1243.212,1671.935z M1177.29,1659.826h56.313c-0.757-2.695-1.147-5.527-1.147-8.433
						c0-16.309,12.637-29.58,28.174-29.58c4.727,0,9.268,1.211,13.291,3.467c11.26-64.771,26.67-208.799-21.792-356.001
						c-1.958,0.264-3.955,0.396-5.972,0.396c-25.601,0-46.558-21.533-47.671-48.452l-58.877,22.983
						c3.838,7.163,5.903,15.698,5.903,24.741c0,12.49-4.121,24.326-11.167,32.461
						C1157.729,1381.745,1192.836,1530.851,1177.29,1659.826z"/>
				</g>
				<g>
					<path style="fill:#232323;" d="M1438.08,1760.778h-282.793c-6.719,0-13.135-2.793-17.715-7.71
						c-4.585-4.917-6.914-11.519-6.445-18.218c0.234-3.325,21.958-334.639-107.07-515.898c-4.477-6.294-5.688-14.346-3.252-21.68
						c2.436-7.329,8.223-13.057,15.576-15.42l221.382-71.103c2.393-0.772,4.893-1.162,7.407-1.162h273.101
						c7.739,0,15.015,3.701,19.57,9.956c4.561,6.255,5.854,14.316,3.482,21.684c-0.523,1.626-52.373,163.848-51.484,254.126
						c0.64,65.415,4.683,90.298,6.387,97.954c14.575,17.563,54.912,78.432,46.206,206.113c-0.459,6.768-3.735,13.027-9.033,17.266
						c-1.743,1.401-37.236,29.228-91.406,23.726C1460.146,1751.955,1450.146,1760.778,1438.08,1760.778z M1180.693,1712.34h233.169
						v-1.636c0-7.749,3.711-15.034,9.98-19.59c6.27-4.56,14.351-5.83,21.709-3.447c32.227,10.449,56.948,2.261,69.248-3.867
						c5.103-117.813-36.309-160.264-36.743-160.674c-1.826-1.714-3.369-3.701-4.585-5.889c-9.15-16.46-11.611-75.107-12.07-121.406
						c-0.723-73.418,28.506-183.896,44.209-237.807h-236.645l-187.52,60.225C1182.294,1385.69,1183.359,1631.989,1180.693,1712.34z"
						/>
				</g>
				<g>
					<path style="fill:#232323;" d="M1317.143,1760.783c-1.431,0-2.876-0.127-4.336-0.391c-13.159-2.378-21.904-14.976-19.526-28.14
						c75.073-415.659-46.118-582.109-47.353-583.74c-8.027-10.635-6.006-25.806,4.58-33.896c10.581-8.081,25.669-6.162,33.823,4.375
						c5.591,7.231,136.03,182.173,56.616,621.875C1338.832,1752.57,1328.632,1760.783,1317.143,1760.783z"/>
				</g>
				<g>
					<path style="fill:#232323;" d="M1438.105,1728.205c-0.781,0-1.567-0.049-2.358-0.156c-9.575-1.289-16.299-10.098-15.01-19.678
						c0.557-4.126,54.077-414.478-66.816-563.54c-6.084-7.51-4.937-18.53,2.568-24.619c7.505-6.084,18.526-4.941,24.619,2.568
						c130.381,160.771,76.665,572.798,74.316,590.259C1454.243,1721.823,1446.728,1728.205,1438.105,1728.205z"/>
				</g>
				<g>
					<g>
						<g>
							<polyline style="fill:#FCCE00;" points="1256.105,1542.265 1335.198,1507.092 1518.877,1507.092 1518.877,1363.569 
								1328.194,1363.569 1239.26,1408.027 							"/>
						</g>
						<g>
							<polygon style="fill:#232323;" points="1257.119,1544.547 1255.087,1539.977 1335.2,1504.591 1516.376,1504.591 
								1516.376,1366.071 1328.784,1366.071 1240.38,1410.265 1238.144,1405.793 1327.602,1361.071 1521.376,1361.071 
								1521.376,1509.591 1335.732,1509.591 							"/>
						</g>
					</g>
					<g>
						<path style="fill:#232323;" d="M1256.118,1566.486c-9.277,0-18.13-5.361-22.144-14.385
							c-5.434-12.222,0.068-26.533,12.29-31.968l79.097-35.171c3.096-1.377,6.45-2.09,9.839-2.09h159.458v-95.083h-160.747
							l-83.818,41.9c-11.963,5.986-26.509,1.133-32.49-10.83c-5.982-11.963-1.133-26.514,10.83-32.49l88.931-44.458
							c3.364-1.684,7.07-2.559,10.83-2.559h190.684c13.374,0,24.219,10.845,24.219,24.219v143.521
							c0,13.374-10.845,24.219-24.219,24.219h-178.535l-74.399,33.081C1262.744,1565.812,1259.404,1566.486,1256.118,1566.486z"/>
					</g>
				</g>
				<g>
					<path style="fill:#F9F9F9;" d="M1262.644,1455.508c-20.231-85.128-123.444-119.738-193.11-66.797
						c-38.663,29.378-77.118,79.226-100.082,163.628c-1.939,7.13-3.633,14.465-5.106,21.97
						c53.349,41.317,122.502,66.178,192.662,81.312C1160.914,1653.238,1290.583,1573.081,1262.644,1455.508z"/>
				</g>
				<g>
					<path style="fill:#232323;" d="M1362.617,2186.798c-110.176,0.01-210.239-51.807-290.522-150.752
						c-109.961-135.522-163.423-346.011-124.351-489.614c21.265-78.159,57.661-137.251,108.179-175.635
						c39.463-29.98,91.035-37.866,137.949-21.064c45.689,16.357,79.585,53.955,90.664,100.571
						c31.797,133.818-110.044,221.055-116.099,224.702c-10.63,6.406-24.468,2.988-30.884-7.661
						c-6.406-10.63-2.988-24.438,7.627-30.864l0,0c1.201-0.727,119.741-74.063,95.576-175.771
						c-7.661-32.227-30.278-57.236-62.051-68.608c-32.549-11.66-68.267-6.221-95.557,14.526
						c-42.437,32.241-73.384,83.257-91.987,151.621c-35.615,130.913,14.199,324.131,115.874,449.443
						c52.847,65.127,143.174,141.152,273.696,133.579c12.422-0.874,23.052,8.745,23.77,21.152
						c0.723,12.407-8.75,23.047-21.152,23.77C1376.406,2186.598,1369.482,2186.798,1362.617,2186.798z"/>
				</g>
				<g>
					<g>
						<path style="fill:#FCCE00;" d="M2348.774,2932.358c-26.774,0-48.479-21.702-48.479-48.479
							c0-80.141,58.452-149.249,133.073-157.316c26.591-2.904,50.53,16.362,53.412,42.981c2.878,26.619-16.365,50.53-42.984,53.408
							c-27.43,2.973-46.544,34.49-46.544,60.927C2397.252,2910.656,2375.548,2932.358,2348.774,2932.358z"/>
						<path style="fill:#232323;" d="M2348.774,2952.36c-37.759,0-68.476-30.723-68.476-68.482
							c0-90.215,66.294-168.052,150.923-177.197c18.14-1.987,36.001,3.237,50.259,14.697c14.272,11.475,23.218,27.813,25.186,46.011
							c4.058,37.549-23.179,71.392-60.718,75.444c-15.894,1.724-28.696,23.862-28.696,41.045
							C2417.25,2921.637,2386.533,2952.36,2348.774,2952.36z M2438.671,2746.276c-1.04,0-2.085,0.054-3.13,0.171
							c-64.634,6.987-115.244,67.353-115.244,137.431c0,15.703,12.773,28.482,28.476,28.482c15.703,0,28.477-12.779,28.477-28.482
							c0-35.654,25.874-76.635,64.395-80.81c15.615-1.69,26.938-15.762,25.254-31.377c-0.82-7.563-4.541-14.36-10.483-19.135
							C2451.313,2748.454,2445.107,2746.276,2438.671,2746.276z"/>
					</g>
				</g>
				<g style="opacity:0.3;">
					<path style="fill:#232323;" d="M2486.78,2769.543c-2.307-21.315-18.13-37.881-37.991-42.158
						c1.472,3.832,2.529,7.887,2.991,12.158c2.878,26.62-16.365,50.531-42.983,53.409c-27.429,2.972-46.543,34.491-46.543,60.927
						c0,26.777-21.707,48.479-48.479,48.479c-3.508,0-6.919-0.393-10.215-1.1c6.992,18.177,24.573,31.1,45.215,31.1
						c26.772,0,48.479-21.702,48.479-48.479c0-26.436,19.114-57.954,46.543-60.927
						C2470.415,2820.074,2489.658,2796.163,2486.78,2769.543z"/>
				</g>
				<g>
					<rect x="2136.71" y="2883.885" style="fill:#08B3FF;" width="745.494" height="601.135"/>
				</g>
				<g style="opacity:0.5;">
					<polygon style="fill:#FFFFFF;" points="2161.709,2928.885 2882.205,2928.885 2882.205,2883.885 2136.709,2883.885 
						2136.709,3485.021 2161.709,3485.021 					"/>
				</g>
				<g style="opacity:0.3;">
					<g>
						<path style="fill:#371A45;" d="M2818.061,2883.885c-16.566,306.245-270.117,549.472-580.497,549.472H2136.71v51.663h745.494
							v-601.135H2818.061z"/>
					</g>
					<g>
						<path style="fill:#232323;" d="M2884.702,3487.521h-750.493v-56.665h103.354c307.515,0,561.406-240.317,578.003-547.109
							l0.127-2.363h69.009V3487.521z M2139.208,3482.521h740.493v-596.138h-59.277c-17.92,308.306-273.486,549.473-582.861,549.473
							h-98.354V3482.521z"/>
					</g>
				</g>
				<g>
					<path style="fill:#232323;" d="M2882.202,3509.24h-745.493c-13.374,0-24.219-10.845-24.219-24.219v-601.138
						c0-13.374,10.845-24.219,24.219-24.219h745.493c13.374,0,24.219,10.845,24.219,24.219v601.138
						C2906.42,3498.395,2895.576,3509.24,2882.202,3509.24z M2160.927,3460.802h697.056v-552.7h-697.056V3460.802z"/>
				</g>
				<g>
					<path style="fill:#232323;" d="M2882.202,3500.021h-670.078c-8.286,0-15-6.714-15-15v-601.138c0-8.286,6.714-15,15-15h670.078
						c8.286,0,15,6.714,15,15v601.138C2897.202,3493.307,2890.488,3500.021,2882.202,3500.021z M2227.124,3470.021h640.078v-571.138
						h-640.078V3470.021z"/>
				</g>
				<g>
					<path style="fill:#232323;" d="M2882.202,3500.021h-588.203c-8.286,0-15-6.714-15-15v-601.138c0-8.286,6.714-15,15-15h588.203
						c8.286,0,15,6.714,15,15v601.138C2897.202,3493.307,2890.488,3500.021,2882.202,3500.021z M2308.999,3470.021h558.203v-571.138
						h-558.203V3470.021z"/>
				</g>
				<g>
					<path style="fill:#232323;" d="M2331.118,2462.086c-5.259,0-10.464-2.358-13.906-6.855c-5.864-7.661-4.434-18.613,3.213-24.497
						c6.255-4.81,155.762-116.973,383.682-48.394c9.253,2.788,14.497,12.544,11.714,21.802
						c-2.788,9.253-12.524,14.512-21.802,11.714c-210.024-63.203-350.889,41.577-352.285,42.646
						C2338.559,2460.919,2334.823,2462.086,2331.118,2462.086z"/>
				</g>
				<g>
					<path style="fill:#FFFFFF;" d="M1344.211,2296.274l246.685,49.267c23.987,4.793,47.317-10.766,52.106-34.753l18.784-94.036
						c4.789-23.988-10.77-47.313-34.757-52.106l-246.684-49.275c-23.987-4.785-47.317,10.774-52.106,34.761l-18.784,94.036
						C1304.666,2268.156,1320.224,2291.482,1344.211,2296.274z"/>
				</g>
				<g>
					<path style="fill:#232323;" d="M1599.711,2366.417c-4.229,0-8.491-0.42-12.734-1.265l-246.68-49.263h-0.005
						c-34.751-6.948-57.388-40.879-50.454-75.635l18.784-94.038c6.943-34.751,40.849-57.432,75.635-50.459l246.689,49.273
						c34.756,6.948,57.388,40.879,50.454,75.635l-18.784,94.038c-3.364,16.841-13.086,31.362-27.373,40.894
						C1624.56,2362.721,1612.27,2366.417,1599.711,2366.417z M1348.129,2276.662l246.685,49.263
						c6.382,1.274,12.837-0.005,18.237-3.608c5.396-3.599,9.068-9.082,10.337-15.444l18.784-94.033
						c2.622-13.135-5.932-25.957-19.063-28.579l-246.68-49.273c-13.144-2.642-25.962,5.933-28.579,19.063l-18.784,94.033
						C1326.445,2261.212,1334.999,2274.035,1348.129,2276.662L1348.129,2276.662z"/>
				</g>
				<g>
					<path style="fill:#FFFFFF;" d="M1662.5,2054.126l474.148,101.546c52.091,11.152,85.564,62.878,74.426,114.991l-50.922,237.725
						c-11.152,52.087-62.896,85.56-114.987,74.399l-474.153-101.546c-52.087-11.152-85.578-62.887-74.408-114.973l50.9-237.725
						C1558.665,2076.439,1610.391,2042.966,1662.5,2054.126z"/>
					<path style="fill:#232323;" d="M2065.522,2604.953c-8.164,0-16.382-0.864-24.546-2.612l-474.155-101.543
						c-30.415-6.514-56.528-24.561-73.525-50.825c-16.997-26.265-22.768-57.486-16.245-87.9l50.898-237.72
						c13.491-63.003,75.728-103.281,138.74-89.78l474.151,101.543c62.979,13.481,103.262,75.718,89.795,138.726l-50.928,237.734
						c-6.509,30.415-24.565,56.528-50.835,73.521C2109.658,2598.527,2087.788,2604.953,2065.522,2604.953z M1642.197,2071.969
						c-35.459,0-67.417,24.727-75.137,60.762l-50.899,237.725c-4.282,19.971-0.479,40.488,10.718,57.783
						c11.191,17.295,28.35,29.17,48.32,33.447l474.155,101.543c19.98,4.282,40.498,0.474,57.793-10.718
						c17.29-11.187,29.17-28.345,33.447-48.315l50.923-237.725c8.857-41.44-17.637-82.378-59.053-91.245l-474.155-101.543
						C1652.91,2072.526,1647.509,2071.969,1642.197,2071.969z"/>
				</g>
				<g style="opacity:0.3;">
					<path style="fill:#232323;" d="M1662.5,2054.126l474.148,101.546c52.091,11.152,85.564,62.878,74.426,114.991l-50.922,237.725
						c-11.152,52.087-62.896,85.56-114.987,74.399l-474.153-101.546c-52.087-11.152-85.578-62.887-74.408-114.973l50.9-237.725
						C1558.665,2076.439,1610.391,2042.966,1662.5,2054.126z"/>
				</g>
				<g>
					<path style="fill:#FFFFFF;" d="M1541.396,2028.448l474.153,101.554c52.091,11.152,85.565,62.878,74.421,114.991
						l-50.922,237.725c-11.152,52.086-62.896,85.551-114.982,74.399l-474.153-101.545c-52.091-11.161-85.582-62.887-74.408-114.974
						l50.9-237.725C1437.562,2050.77,1489.288,2017.287,1541.396,2028.448z"/>
				</g>
				<g>
					<g>
						<ellipse style="fill:#22A7F0;" cx="1931.829" cy="2257.212" rx="56.778" ry="60.054"/>
					</g>
					<g style="opacity:0.5;">
						<path style="fill:#FFFFFF;" d="M1890.051,2282.212c0-33.167,25.42-60.054,56.777-60.054c15.107,0,28.799,6.279,38.97,16.455
							c-7.407-24.055-28.752-41.455-53.97-41.455c-31.357,0-56.777,26.887-56.777,60.054c0,17.19,6.865,32.651,17.808,43.599
							C1891.055,2294.949,1890.051,2288.708,1890.051,2282.212z"/>
					</g>
					<g>
						<path style="fill:#232323;" d="M1931.83,2329.767c-38.198,0-69.277-32.549-69.277-72.554
							c0-40.005,31.079-72.553,69.277-72.553s69.277,32.549,69.277,72.553C2001.108,2297.219,1970.029,2329.767,1931.83,2329.767z
							 M1931.83,2209.66c-24.414,0-44.277,21.333-44.277,47.553c0,26.221,19.863,47.554,44.277,47.554s44.277-21.333,44.277-47.554
							C1976.108,2230.993,1956.245,2209.66,1931.83,2209.66z"/>
					</g>
				</g>
				<g style="opacity:0.3;">
					<path style="fill:#232323;" d="M2052.464,2146.701c1.943,11.634,1.864,23.779-0.742,35.968l-50.922,237.725
						c-11.152,52.086-62.896,85.551-114.982,74.4l-474.153-101.546c-13.788-2.954-26.218-8.812-36.916-16.706
						c6.351,38.095,35.255,70.48,75.166,79.031l474.153,101.543c52.087,11.154,103.831-22.311,114.982-74.397l50.922-237.725
						C2098.165,2206.674,2082.18,2168.627,2052.464,2146.701z"/>
				</g>
				<g>
					<path style="fill:#232323;" d="M1944.413,2579.284c-8.164,0-16.377-0.864-24.536-2.612l-474.155-101.543
						c-30.42-6.518-56.533-24.57-73.525-50.83c-17.002-26.265-22.769-57.48-16.245-87.896l50.898-237.72
						c6.514-30.425,24.565-56.538,50.825-73.535c26.26-17.002,57.471-22.773,87.91-16.255l474.155,101.553
						c62.984,13.481,103.262,75.718,89.785,138.726l-50.923,237.735c-6.509,30.415-24.565,56.523-50.83,73.521
						C1988.554,2572.858,1966.679,2579.284,1944.413,2579.284z M1521.118,2046.296c-14.648,0-29.043,4.233-41.709,12.432
						c-17.29,11.191-29.17,28.354-33.447,48.335l-50.898,237.725c-4.282,19.971-0.479,40.488,10.713,57.778
						s28.354,29.17,48.325,33.452l474.155,101.543c19.956,4.262,40.488,0.469,57.788-10.723
						c17.295-11.187,29.17-28.344,33.447-48.311l50.923-237.725c8.862-41.44-17.627-82.378-59.053-91.245l-474.155-101.553l0,0
						C1531.86,2046.862,1526.469,2046.296,1521.118,2046.296z"/>
				</g>
				<g>
					<path style="fill:#232323;" d="M1659.389,2521.237c-1.304,0-2.627-0.117-3.955-0.352
						c-12.236-2.173-20.396-13.848-18.223-26.084l32.505-183.14l-131.655-84.961c-7.896-5.098-11.792-14.565-9.771-23.74
						l35.356-160.674c2.666-12.134,14.697-19.814,26.807-17.139c12.139,2.671,19.81,14.673,17.139,26.807l-31.997,145.41
						l131.089,84.595c7.612,4.917,11.533,13.916,9.951,22.837l-35.117,197.866
						C1679.584,2513.571,1670.092,2521.237,1659.389,2521.237z"/>
				</g>
				<g>
					<path style="fill:#FFFFFF;" d="M2338.813,2498.897l-192.557-38.455c-23.981-4.785-39.493-28.115-34.711-52.102l18.744-93.978
						c4.785-24.05,28.118-39.565,52.099-34.781l121.197,24.176C2316.837,2359.799,2329.376,2425.081,2338.813,2498.897z"/>
					<path style="fill:#232323;" d="M2362.182,2523.961l-219.844-43.906c-34.727-6.929-57.339-40.855-50.41-75.625l18.745-93.98
						c3.354-16.86,13.076-31.401,27.373-40.932c14.272-9.512,31.401-12.9,48.257-9.551l133.789,26.689l2.954,12.495
						c15.01,63.477,26.987,129.824,35.605,197.212L2362.182,2523.961z M2173.657,2298.717c-4.751,0-9.39,1.392-13.423,4.082
						c-5.391,3.599-9.063,9.087-10.332,15.464l-18.745,93.989c-2.617,13.14,5.908,25.962,19.014,28.574l165.068,32.969
						c-7.417-52.095-16.88-103.384-28.213-152.949l-108.55-21.65C2176.869,2298.874,2175.258,2298.717,2173.657,2298.717z"/>
				</g>
				<g style="opacity:0.3;">
					<path style="fill:#232323;" d="M2303.584,2303.758l-65.01-12.969c2.177,10.567,4.327,21.313,6.408,32.411
						c10.072,53.708-37.33,100.628-90.915,89.928l-41.812-8.351l-0.71,3.563c-4.782,23.987,10.731,47.317,34.711,52.102
						l192.557,38.455C2329.376,2425.081,2316.837,2359.799,2303.584,2303.758z"/>
				</g>
				<g>
					<g>
						<polygon style="fill:#F91E1E;" points="1914.786,1948.785 2015.035,1876.887 1981.778,1791.526 1835.064,1744.101 
							1762.403,1800.432 1784.433,1890.61 						"/>
						<path style="fill:#232323;" d="M1917.407,1974.596l-152.212-67.93l-28.115-115.073l93.594-72.554l168.188,54.36
							l43.477,111.592L1917.407,1974.596z M1803.671,1874.557l108.491,48.418l75.566-54.194l-23.037-59.131l-125.239-40.483
							l-51.729,40.102L1803.671,1874.557z"/>
					</g>
					<g>
						<path style="fill:#232323;" d="M1914.785,1971.286c-3.11,0-6.235-0.644-9.17-1.953l-130.352-58.174
							c-6.352-2.837-11.035-8.447-12.685-15.205l-22.031-90.181c-2.109-8.628,1.055-17.685,8.071-23.125l72.661-56.328
							c5.874-4.556,13.623-5.913,20.703-3.628l146.714,47.422c6.436,2.08,11.592,6.943,14.048,13.242l33.257,85.361
							c3.731,9.575,0.498,20.464-7.852,26.45l-100.249,71.904C1924.013,1969.855,1919.413,1971.286,1914.785,1971.286z
							 M1803.671,1874.557l108.491,48.418l75.566-54.194l-23.037-59.131l-125.239-40.483l-51.729,40.102L1803.671,1874.557z"/>
					</g>
					<g>
						<path style="fill:#F91E1E;" d="M1914.786,1948.791l-130.353-58.174c0,0-102.345,150.814-190.683,437.381
							c0,0,43.091,138.972,120.657,205.226l201.994-106.653C1916.402,2426.57,1901.858,2085.061,1914.786,1948.791z"/>
						<path style="fill:#232323;" d="M1711.411,2560.25l-11.616-9.917c-81.577-69.683-125.698-209.741-127.534-215.669l-2.061-6.646
							l2.046-6.646c88.32-286.494,189.312-437.119,193.569-443.389l10.581-15.596l162.315,72.441l-1.528,16.084
							c-12.627,133.169,1.553,471.299,1.699,474.697l0.605,14.214L1711.411,2560.25z M1617.377,2327.77
							c8.804,25.713,44.453,122.275,100.591,178.13l175.376-92.602c-2.52-64.063-11.709-321.69-2.305-450.464l-97.974-43.726
							C1765.737,1964.084,1687.124,2103.844,1617.377,2327.77z"/>
					</g>
					<g style="opacity:0.3;">
						<path style="fill:#232323;" d="M1917.872,1950.546l101.086-72.497l-34.724-89.124l-149.17-44.824l-65.652,62.797
							l56.021,12.092c46.764,10.094,59.385,70.862,20.509,98.743l0,0c-8.38,90.632-4.719,273.947-1.378,385.342
							c1.704,56.835-29.084,109.648-79.367,136.197l-94.863,50.086c12.629,17.21,26.63,33.212,41.975,46.32l1.666,1.427
							l205.744-108.629l-0.088-2.045C1919.486,2423.035,1905.348,2085.999,1917.872,1950.546z"/>
					</g>
					<g>
						<path style="fill:#232323;" d="M1714.413,2555.724c-5.249,0-10.454-1.836-14.619-5.391
							c-81.577-69.683-125.698-209.741-127.534-215.669c-1.343-4.331-1.348-8.965-0.015-13.291
							c88.32-286.494,189.312-437.119,193.569-443.389c6.123-9.023,17.827-12.358,27.788-7.915l130.352,58.174
							c8.818,3.936,14.141,13.057,13.228,22.671c-12.627,133.169,1.553,471.299,1.699,474.697
							c0.366,8.682-4.292,16.797-11.973,20.854l-201.992,106.655C1721.606,2554.87,1717.998,2555.724,1714.413,2555.724z
							 M1617.377,2327.77c8.804,25.713,44.453,122.275,100.591,178.13l175.376-92.602c-2.52-64.063-11.709-321.69-2.305-450.464
							l-97.974-43.726C1765.737,1964.084,1687.124,2103.844,1617.377,2327.77z"/>
					</g>
				</g>
				<g>
					<path style="fill:#232323;" d="M2061.328,2903.306c-44.568,26.138-94.175,44.775-145.764,55.273
						c-51.489,10.09-105.403,14.768-157.822,5.183c-26.138-4.751-51.707-12.028-76.682-20.511l-18.562-6.846l-18.198-7.695
						c-6.096-2.446-11.946-5.515-17.886-8.296l-8.862-4.263l-8.657-4.688c-46.401-24.406-87.964-56.98-123.015-94.471
						c-1.624-1.738-1.533-4.465,0.205-6.09c1.538-1.437,3.845-1.532,5.483-0.334l0.068,0.05
						c20.403,14.894,41.414,28.563,63.347,40.348c21.77,12.017,44.348,22.299,67.434,30.837
						c46.018,17.511,94.126,27.767,142.29,32.375c24.136,1.968,48.103,4.286,72.368,5.872c24.255,1.475,48.672,1.219,73.12-0.339
						c48.879-3.362,97.776-12.9,145.662-28.488l0.034-0.012c3.501-1.14,7.266,0.775,8.406,4.277
						C2065.286,2898.523,2063.975,2901.755,2061.328,2903.306z"/>
				</g>
				<g>
					<path style="fill:#232323;" d="M1944.399,3457.575c-0.024,0-0.049,0-0.078,0c-13.374-0.039-24.18-10.918-24.141-24.292
						c0.005-1.572-0.005-158.301-40.806-260.303c-41.699-104.243-113.921-216.948-114.643-218.076
						c-7.236-11.245-3.984-26.23,7.261-33.472c11.235-7.231,26.23-3.984,33.472,7.261c3.057,4.751,75.425,117.656,118.882,226.299
						c44.331,110.825,44.297,271.66,44.272,278.452C1968.574,3446.789,1957.739,3457.575,1944.399,3457.575z"/>
				</g>
				<g>
					<path style="fill:#232323;" d="M1874.404,3093.997c-4.565,8.639-8.97,18.363-12.776,27.845
						c-4.038,9.471-7.292,19.282-10.596,28.967c-6.26,19.539-11.189,39.386-14.426,59.425c-3.406,19.991-5.559,40.1-6.079,60.242
						c-0.356,5.015-0.269,10.056-0.188,15.089l0.193,15.16l0.84,31.969c0.999,42.625,1.27,85.249,0.796,127.874
						c-0.483,42.625-1.064,85.249-1.218,127.874l-0.002,0.457c-0.017,4.768-1.465,9.183-3.945,12.861
						c-1.213,1.804-1.455,2.017-2.141,2.937l-1.602,1.927c-1.077,1.3-2.043,2.246-3.083,3.358c-2.043,2.043-4.082,3.994-6.172,5.687
						c-4.155,3.55-8.464,6.451-12.847,9.164c-8.794,5.295-17.925,9.158-27.102,12.162c-18.396,5.834-36.936,8.005-54.836,7.985
						h-96.155H1430.75h-96.155h-12.019l-1.553-0.006l-2.126-0.077l-4.253-0.203c-2.827-0.233-5.649-0.667-8.455-1.104
						c-11.189-2.119-21.914-6.578-31.311-12.985c-9.438-6.364-17.38-14.894-23.389-24.626c-3.049-4.85-5.398-10.115-7.395-15.487
						c-0.823-2.74-1.746-5.469-2.358-8.259l-0.847-4.203l-0.386-2.07l-0.22-1.627c-2.478-17.311-3.521-35.051-2.297-53.101
						c1.233-18.01,4.79-36.42,11.846-54.098c6.985-17.654,17.725-34.388,31.392-48.022c13.628-13.717,29.773-24.189,46.477-32.104
						c12.085-5.728,26.523-0.574,32.251,11.511c5.708,12.043,0.608,26.425-11.387,32.191l-0.698,0.336
						c-12.217,5.872-23.252,13.132-32.244,22.166c-9.014,9.004-15.981,19.76-20.808,31.885
						c-9.727,24.286-10.745,53.503-6.604,82.231l0.178,1.351l0.188,0.879l0.332,1.689c0.227,1.125,0.667,2.181,0.923,3.298
						c0.857,2.108,1.714,4.226,2.971,6.146c2.417,3.861,5.571,7.4,9.463,9.965c3.855,2.6,8.215,4.421,12.771,5.313
						c1.155,0.131,2.3,0.342,3.459,0.443l1.75,0.067l0.876,0.059l1.453,0.005h12.019h96.155h192.314h96.155
						c14.136,0.044,27.781-1.785,39.958-5.642c6.04-1.964,11.753-4.421,16.638-7.5c2.397-1.549,4.746-3.149,6.646-4.857
						c1.03-0.824,1.848-1.693,2.639-2.476c0.31-0.369,0.791-0.813,0.967-1.079l0.317-0.386c-0.088,0.117,0.305-0.447-0.352,0.524
						l-3.948,13.315c-0.154-42.625-0.737-85.249-1.218-127.874c-0.476-42.625-0.205-85.249,0.796-127.874l0.837-31.969l1.028-16.797
						c0.337-5.621,0.676-11.235,1.472-16.823l2.058-16.752l3.179-16.578c0.95-5.532,2.393-10.975,3.743-16.422
						c1.387-5.438,2.571-10.911,4.387-16.234c1.75-5.334,3.296-10.707,5.217-15.966l5.872-15.703
						c2.151-5.161,4.47-10.248,6.711-15.341l7.402-14.983c5.295-9.811,10.92-19.396,17.168-28.599
						c6.318-9.259,12.864-17.886,20.913-26.432c3.066-3.256,8.191-3.408,11.445-0.343c2.71,2.552,3.269,6.532,1.614,9.672
						L1874.404,3093.997z"/>
				</g>
				<g>
					<path style="fill:#232323;" d="M1327.309,3281.95c-7.837,0-14.971-5.308-16.963-13.252c-2.344-9.38,3.35-18.882,12.725-21.23
						c211.089-52.837,477.026-2.373,488.247-0.205c9.487,1.841,15.689,11.021,13.848,20.513
						c-1.836,9.482-10.942,15.684-20.508,13.853c-2.671-0.522-269.648-51.157-473.081-0.205
						C1330.146,3281.779,1328.715,3281.95,1327.309,3281.95z"/>
				</g>
				<g>
					<path style="fill:#232323;" d="M2713.826,1873.542l-162.905-16.322c-4.36-0.437-7.542-4.326-7.104-8.688
						c0.381-3.824,3.423-6.74,7.104-7.106l162.905-16.322c13.376-1.34,25.305,8.417,26.646,21.792s-8.416,25.305-21.792,26.646
						C2717.08,1873.702,2715.369,1873.687,2713.826,1873.542z"/>
				</g>
				<g>
					<g style="opacity:0.3;">
						<polygon style="fill:#232323;" points="1518.877,1370.904 1518.877,1363.569 1511.011,1363.569 						"/>
					</g>
					<g style="opacity:0.3;">
						<path style="fill:#232323;" d="M1341.906,1364.394l-0.064-0.825h-13.647l-88.934,44.458l16.844,134.238l79.093-35.172h183.679
							v-54.176h-82.289C1386.654,1452.917,1345.723,1414.182,1341.906,1364.394z"/>
					</g>
				</g>
				<g>
					<g>
						<g>
							<path style="fill:#FFDA00;" d="M2465.742,3125.267c-47.365,19.128-76.99,44.978-73.225,68.498
								c3.673,22.939,38.149,38.051,87.022,41.971c27.05,2.176,58.502,0.871,91.576-4.424c35.434-5.673,67.647-15.114,93.612-26.651
								c42.158-18.691,67.869-42.724,64.339-64.774c-3.623-22.63-37.25-37.64-85.123-41.76"/>
						</g>
						<g>
							<path style="fill:#FFDA00;" d="M2465.704,3125.263c-7.879,18.441-10.79,39.419-7.359,60.85
								c2.997,18.723,10.502,35.613,21.156,49.619c-48.834-3.926-83.311-19.038-86.983-41.977
								C2388.752,3170.235,2418.378,3144.385,2465.704,3125.263z"/>
						</g>
						<g>
							
								<ellipse transform="matrix(0.9874 -0.1581 0.1581 0.9874 -468.7402 445.0779)" style="fill:#9C50FF;" cx="2563.609" cy="3169.271" rx="106.586" ry="109.067"/>
						</g>
						<g style="opacity:0.55;">
							<path style="fill:#FFFFFF;" d="M2628.298,3083.165c-17.83-7.779-37.854-10.683-58.279-7.413
								c-58.142,9.308-97.542,65.051-88.018,124.546c4.57,28.549,19.602,52.804,40.442,69.226
								c-32.756-14.276-57.93-44.883-64.098-83.412c-9.518-59.457,29.876-115.239,88.018-124.547
								C2576.537,3056.736,2605.851,3065.374,2628.298,3083.165z"/>
						</g>
						<g>
							<path style="fill:#232323;" d="M2564.121,3289.147c-24.717,0-48.765-7.94-69.204-23.101
								c-25.42-18.853-42.207-46.631-47.266-78.213c-10.449-65.288,33.062-126.733,97.002-136.973
								c63.936-10.18,124.453,34.556,134.917,99.849l0,0c5.054,31.582-2.221,63.208-20.493,89.063
								c-18.32,25.927-45.493,42.939-76.514,47.905C2576.406,3288.664,2570.239,3289.147,2564.121,3289.147z M2562.895,3071.105
								c-4.893,0-9.839,0.381-14.814,1.182c-52.124,8.345-87.568,58.643-79.004,112.119c4.15,25.952,17.92,48.76,38.765,64.219
								c20.771,15.4,46.089,21.67,71.294,17.627c25.205-4.033,47.305-17.881,62.227-39.004
								c14.98-21.192,20.938-47.158,16.782-73.111C2650.4,3105.768,2609.257,3071.105,2562.895,3071.105z"/>
						</g>
						<g>
							<path style="fill:#FFDA00;" d="M2686.156,3126.962c7.877,49.201-233.147,97.705-253.21,40.536l-16.185,53.247
								c98.36,25.122,195.285,9.605,290.775-46.55L2686.156,3126.962z"/>
						</g>
						<g>
							<path style="fill:#232323;" d="M2505.448,3247.585c-9.209,0-18.169-0.347-26.777-1.04
								c-57.095-4.58-92.402-23.193-96.865-51.064c-4.59-28.657,24.521-57.915,79.873-80.273c5.566-2.246,11.875,0.439,14.121,5.996
								c2.241,5.557-0.439,11.875-5.996,14.121c-49.092,19.829-68.809,42.778-66.577,56.724
								c2.588,16.167,33.604,29.38,77.183,32.876c27.007,2.163,57.768,0.674,88.989-4.321c33.487-5.366,64.927-14.307,90.923-25.854
								c37.749-16.738,60.522-37.598,58.032-53.15c-2.539-15.879-32.817-29.004-75.342-32.666
								c-5.967-0.513-10.391-5.767-9.873-11.738c0.508-5.967,5.723-10.454,11.738-9.873c55.903,4.81,90.498,23.345,94.902,50.85
								c4.282,26.748-21.475,54.6-70.659,76.406c-27.676,12.3-60.977,21.787-96.294,27.446
								C2549.799,3245.71,2526.933,3247.585,2505.448,3247.585z"/>
						</g>
						<g>
							<path style="fill:#232323;" d="M2436.221,3166.349c4.534,9.111,15.166,13.441,25.781,15.898
								c10.784,2.488,22.231,3.201,33.66,3.313c11.453-0.001,22.993-0.493,34.5-1.716c11.523-0.999,23.015-2.639,34.453-4.568
								c22.876-3.838,45.566-9.207,67.434-16.473c10.852-3.77,21.606-7.932,31.345-13.433c4.902-2.684,9.414-5.858,13.188-9.451
								c3.621-3.657,6.37-7.821,6.147-12.408l-0.007-0.126c-0.093-1.92,1.389-3.551,3.308-3.644
								c1.702-0.082,3.176,1.073,3.552,2.672c0.85,3.572,0.5,7.456-0.647,10.839c-1.162,3.402-2.986,6.364-4.983,9.053
								c-4.102,5.267-9.041,9.419-14.106,13.094c-10.261,7.224-21.282,12.709-32.534,17.365
								c-22.527,9.283-46.013,15.358-69.788,19.569c-23.811,3.994-48.04,6.13-72.478,4.407c-12.197-0.872-24.485-2.725-36.479-6.827
								c-5.947-2.166-11.865-4.895-17.205-8.871c-2.615-2.089-5.122-4.376-7.19-7.142c-2.012-2.803-3.579-5.947-4.502-9.252
								c-0.515-1.848,0.564-3.766,2.415-4.281c1.631-0.457,3.318,0.333,4.045,1.797L2436.221,3166.349z"/>
						</g>
					</g>
					<g>
						<path style="fill:#FFFFFF;" d="M2562.91,3048.5c33.413,0,64.614,14.507,86.699,38.403
							c53.579,5.474,86.714,23.965,91.064,51.125c4.214,26.323-20.044,53.577-66.582,75.242
							c-14.648,38.601-48.428,68.425-91.382,75.303c-6.182,0.989-12.324,1.467-18.398,1.467c-35.552,0-68.594-16.414-90.821-43.088
							c-54.502-5.313-88.184-23.865-92.578-51.331c-4.536-28.33,23.184-57.122,76.079-79.409
							c16.23-34.15,47.988-59.917,87.519-66.245C2550.688,3048.979,2556.835,3048.5,2562.91,3048.5 M2562.91,3039.821
							c-6.582,0-13.232,0.532-19.771,1.577c-39.722,6.36-74.072,31.714-92.515,68.101c-55.693,24.128-83.462,55.127-78.281,87.495
							c5.015,31.348,39.346,51.965,96.812,58.235c24.365,27.686,58.848,43.491,95.156,43.491c6.577,0,13.232-0.532,19.771-1.577
							c43.154-6.912,79.951-36.465,96.816-77.493c48.921-23.51,73.159-52.903,68.345-82.993
							c-4.98-31.079-38.857-51.631-95.532-58.04C2629.687,3053.923,2596.782,3039.821,2562.91,3039.821L2562.91,3039.821z"/>
					</g>
				</g>
				<g>
					<path style="fill:#232323;" d="M1309.382,3402.454c14.307-11.823,31.443-19.268,48.733-24.031
						c17.395-4.716,35.325-5.997,52.842-5.348c17.539,0.657,34.814,3.673,51.262,8.799c16.396,5.265,32.087,12.574,45.64,22.661
						c1.299,0.967,1.567,2.803,0.601,4.102c-0.686,0.922-1.809,1.326-2.869,1.135l-0.029-0.005
						c-32.017-5.79-63.042-5.706-92.576-0.688c-14.741,2.494-28.906,6.539-42.5,11.013c-13.672,4.431-26.44,10.089-39.265,15.875
						l-0.747,0.337c-10.129,4.569-22.043,0.062-26.614-10.067C1300.049,3417.788,1302.571,3408.088,1309.382,3402.454z"/>
				</g>
			</g>
		</g>
	</g>
</g>
</svg>
